<svg width="81" height="78" viewBox="0 0 81 78" fill="none" xmlns="http://www.w3.org/2000/svg">
<path d="M77.9915 8.53036C77.8912 10.2368 77.59 11.9432 76.787 13.4488C76.1848 14.6533 74.8799 15.7575 73.7757 16.5605C71.6678 18.0661 68.8573 17.8654 66.4482 17.1627C66.8498 18.1665 66.4483 19.371 65.6452 20.174C64.8422 20.977 63.7381 21.2782 62.634 21.2782C62.3328 21.2782 61.9313 21.2782 61.6302 21.1778V20.5755H60.2249C60.1245 20.4751 60.0242 20.4751 59.9238 20.3748C60.0242 20.4751 60.0242 20.4751 60.1245 20.5755H49.585C49.2839 19.9733 49.1835 19.371 49.1835 18.7687C49.0831 16.6608 50.5888 14.4526 52.5963 14.0511C53.8008 13.7499 54.8046 13.9507 56.0091 14.2518C54.102 12.6458 54.0016 9.6345 55.6076 7.62697C57.0129 5.92057 59.6227 5.31831 61.6302 6.32207C61.5298 6.6232 61.4294 7.02471 61.3291 7.32584L62.3328 6.72358C62.1321 6.52283 61.9313 6.42245 61.6302 6.32207C62.1321 4.81643 62.7343 3.51153 64.6415 2.00589C65.3441 1.30325 66.2475 1.00212 67.2513 0.801372C68.5562 0.500243 69.8611 0.29949 71.1659 0.500243C73.0731 0.801372 74.7795 1.70476 75.984 3.21041C77.1885 4.71605 78.0919 6.6232 77.9915 8.53036Z" fill="#B8884B"/>
<path d="M60.2251 20.5756H61.53V21.0775C61.1285 20.9771 60.6266 20.8767 60.2251 20.5756Z" fill="#B8884B"/>
<path d="M62.5 5.99991L63 7.00009L61.1989 7.50369C61.2993 7.20256 61.3997 6.80106 61.5 6.49993C61.5 6.00009 62.2992 5.89954 62.5 5.99991Z" fill="#B8884B"/>
<path d="M30.3129 58.016H3.71313V67.4514H30.3129V58.016Z" fill="#B8884B"/>
<path d="M78.092 75.7826V47.6772H64.0393L62.2326 20.0737H49.0833L47.1761 47.6772H43.4622L43.3618 35.8328L31.1159 46.6734L31.0155 35.7324L18.87 46.6734L18.7696 35.8328L5.41952 47.6772H2.20748V75.7826H0.199951V77.7901H80.1999V75.7826H78.092ZM50.89 22.0812H60.3254L62.0318 47.6772H49.1836L50.89 22.0812ZM41.3543 40.2494L41.4547 47.6772H33.023L41.3543 40.2494ZM29.008 40.2494L29.1084 47.6772H20.6767L29.008 40.2494ZM16.7621 40.2494L16.8624 47.6772H8.43082L16.7621 40.2494ZM76.0845 75.7826H63.8386V57.5141H61.8311V75.7826H53.6002V57.5141H51.5927V75.7826H43.3618V57.5141H41.3543V75.7826H4.21501V49.6847H76.1849V75.7826H76.0845Z" fill="#01305E"/>
</svg>
