<svg width="134" height="208" viewBox="0 0 134 208" fill="none" xmlns="http://www.w3.org/2000/svg">
<path d="M47.4049 124.8C50.8382 126.7 52.5549 129.533 52.5549 133.3C52.5549 136.467 51.4382 138.983 49.2049 140.85C47.0049 142.717 44.0382 143.65 40.3049 143.65C36.5716 143.65 33.5882 142.733 31.3549 140.9C29.1215 139.067 28.0049 136.533 28.0049 133.3C28.0049 131.5 28.4549 129.867 29.3549 128.4C30.2549 126.9 31.5215 125.7 33.1549 124.8C30.5215 123.067 29.2049 120.6 29.2049 117.4C29.2049 114.2 30.2715 111.733 32.4049 110C34.5715 108.233 37.2049 107.35 40.3049 107.35C43.3716 107.35 45.9882 108.233 48.1549 110C50.3216 111.767 51.4049 114.233 51.4049 117.4C51.4049 120.567 50.0716 123.033 47.4049 124.8ZM40.3049 112.8C38.7049 112.8 37.4049 113.233 36.4049 114.1C35.4382 114.933 34.9549 116.117 34.9549 117.65C34.9549 119.117 35.4549 120.3 36.4549 121.2C37.4549 122.067 38.7382 122.5 40.3049 122.5C41.8382 122.5 43.1049 122.067 44.1049 121.2C45.1382 120.3 45.6549 119.117 45.6549 117.65C45.6549 116.117 45.1549 114.933 44.1549 114.1C43.1549 113.233 41.8716 112.8 40.3049 112.8ZM40.3049 138.2C42.2715 138.2 43.8382 137.717 45.0049 136.75C46.2049 135.783 46.8049 134.45 46.8049 132.75C46.8049 131.05 46.2049 129.717 45.0049 128.75C43.8382 127.783 42.2715 127.3 40.3049 127.3C38.3049 127.3 36.7049 127.783 35.5049 128.75C34.3382 129.717 33.7549 131.05 33.7549 132.75C33.7549 134.45 34.3382 135.783 35.5049 136.75C36.7049 137.717 38.3049 138.2 40.3049 138.2ZM64.8422 128H76.3322V143H73.0922V131.12H68.0822V136.7C68.0822 139.04 67.5722 140.72 66.5522 141.74C65.5322 142.76 64.0422 143.18 62.0822 143V139.97C63.0022 140.13 63.6922 139.94 64.1522 139.4C64.6122 138.84 64.8422 137.89 64.8422 136.55V128ZM94.5978 136.88H82.6578C82.8978 138 83.4378 138.87 84.2778 139.49C85.1378 140.11 86.1978 140.42 87.4578 140.42C89.1578 140.42 90.4478 139.8 91.3278 138.56L93.9978 140.12C92.5378 142.3 90.3478 143.39 87.4278 143.39C85.0078 143.39 83.0378 142.65 81.5178 141.17C80.0178 139.67 79.2678 137.78 79.2678 135.5C79.2678 133.28 80.0078 131.41 81.4878 129.89C82.9478 128.37 84.8478 127.61 87.1878 127.61C89.3678 127.61 91.1678 128.38 92.5878 129.92C94.0078 131.46 94.7178 133.33 94.7178 135.53C94.7178 135.93 94.6778 136.38 94.5978 136.88ZM82.6278 134.24H91.4478C91.2278 133.06 90.7278 132.15 89.9478 131.51C89.1878 130.87 88.2578 130.55 87.1578 130.55C85.9578 130.55 84.9578 130.88 84.1578 131.54C83.3578 132.2 82.8478 133.1 82.6278 134.24ZM95.3928 128H108.443V131.12H103.553V143H100.313V131.12H95.3928V128Z" fill="#252D35"/>
<path d="M6.40867 177.26C4.90201 177.26 3.64867 176.76 2.64867 175.76C1.64867 174.747 1.14867 173.493 1.14867 172C1.14867 170.507 1.64867 169.26 2.64867 168.26C3.64867 167.247 4.90201 166.74 6.40867 166.74C7.39534 166.74 8.28201 166.98 9.06867 167.46C9.85534 167.927 10.442 168.56 10.8287 169.36L9.36867 170.2C9.11534 169.667 8.72201 169.24 8.18867 168.92C7.66867 168.6 7.07534 168.44 6.40867 168.44C5.40867 168.44 4.56867 168.78 3.88867 169.46C3.22201 170.153 2.88867 171 2.88867 172C2.88867 172.987 3.22201 173.827 3.88867 174.52C4.56867 175.2 5.40867 175.54 6.40867 175.54C7.07534 175.54 7.67534 175.387 8.20867 175.08C8.74201 174.76 9.14867 174.333 9.42867 173.8L10.9087 174.66C10.4687 175.46 9.84867 176.093 9.04867 176.56C8.24867 177.027 7.36867 177.26 6.40867 177.26ZM20.9299 175.74C19.9166 176.753 18.6699 177.26 17.1899 177.26C15.7099 177.26 14.4633 176.753 13.4499 175.74C12.4366 174.727 11.9299 173.48 11.9299 172C11.9299 170.52 12.4366 169.273 13.4499 168.26C14.4633 167.247 15.7099 166.74 17.1899 166.74C18.6699 166.74 19.9166 167.247 20.9299 168.26C21.9566 169.287 22.4699 170.533 22.4699 172C22.4699 173.467 21.9566 174.713 20.9299 175.74ZM17.1899 175.56C18.1899 175.56 19.0299 175.22 19.7099 174.54C20.3899 173.86 20.7299 173.013 20.7299 172C20.7299 170.987 20.3899 170.14 19.7099 169.46C19.0299 168.78 18.1899 168.44 17.1899 168.44C16.2033 168.44 15.3699 168.78 14.6899 169.46C14.0099 170.14 13.6699 170.987 13.6699 172C13.6699 173.013 14.0099 173.86 14.6899 174.54C15.3699 175.22 16.2033 175.56 17.1899 175.56ZM29.0612 177.26C27.5812 177.26 26.3612 176.773 25.4012 175.8C24.4412 174.813 23.9612 173.56 23.9612 172.04C23.9612 170.32 24.2078 169.007 24.7012 168.1C25.2078 167.18 26.2345 166.347 27.7812 165.6C27.8612 165.56 27.9545 165.513 28.0612 165.46C28.1812 165.407 28.3212 165.347 28.4812 165.28C28.6545 165.2 28.8012 165.133 28.9212 165.08L30.0012 164.6C31.0678 164.067 31.6345 163.427 31.7012 162.68L33.1012 163.48C33.0078 163.947 32.8545 164.32 32.6412 164.6C32.6278 164.627 32.5878 164.687 32.5212 164.78C32.4545 164.86 32.4078 164.92 32.3812 164.96C32.3545 164.987 32.3078 165.033 32.2412 165.1C32.1878 165.153 32.1278 165.207 32.0612 165.26C32.0078 165.313 31.9345 165.367 31.8412 165.42C31.3478 165.727 30.9945 165.927 30.7812 166.02C30.7012 166.06 30.6145 166.1 30.5212 166.14C30.4412 166.18 30.3745 166.213 30.3212 166.24C30.2678 166.267 30.2278 166.287 30.2012 166.3L29.5412 166.58L28.9012 166.84C28.0078 167.227 27.3478 167.62 26.9212 168.02C26.4945 168.42 26.1878 168.927 26.0012 169.54C26.4145 169.033 26.9345 168.647 27.5612 168.38C28.2012 168.113 28.8545 167.98 29.5212 167.98C30.7878 167.98 31.8478 168.407 32.7012 169.26C33.5812 170.127 34.0212 171.227 34.0212 172.56C34.0212 173.92 33.5545 175.047 32.6212 175.94C31.6745 176.82 30.4878 177.26 29.0612 177.26ZM32.2812 172.56C32.2812 171.667 31.9878 170.94 31.4012 170.38C30.8278 169.807 30.0678 169.52 29.1212 169.52C28.2812 169.52 27.5078 169.793 26.8012 170.34C26.1212 170.887 25.7812 171.593 25.7812 172.46C25.7812 173.367 26.0945 174.113 26.7212 174.7C27.3478 175.287 28.1278 175.58 29.0612 175.58C30.0078 175.58 30.7745 175.293 31.3612 174.72C31.9745 174.147 32.2812 173.427 32.2812 172.56ZM40.5688 177.26C39.0622 177.26 37.8088 176.76 36.8088 175.76C35.8088 174.747 35.3088 173.493 35.3088 172C35.3088 170.507 35.8088 169.26 36.8088 168.26C37.8088 167.247 39.0622 166.74 40.5688 166.74C41.5555 166.74 42.4422 166.98 43.2288 167.46C44.0155 167.927 44.6022 168.56 44.9888 169.36L43.5288 170.2C43.2755 169.667 42.8822 169.24 42.3488 168.92C41.8288 168.6 41.2355 168.44 40.5688 168.44C39.5688 168.44 38.7288 168.78 38.0488 169.46C37.3822 170.153 37.0488 171 37.0488 172C37.0488 172.987 37.3822 173.827 38.0488 174.52C38.7288 175.2 39.5688 175.54 40.5688 175.54C41.2355 175.54 41.8355 175.387 42.3688 175.08C42.9022 174.76 43.3088 174.333 43.5888 173.8L45.0688 174.66C44.6288 175.46 44.0088 176.093 43.2088 176.56C42.4088 177.027 41.5288 177.26 40.5688 177.26ZM45.5105 167H54.0705V168.68H50.6705V177H48.9305V168.68H45.5105V167ZM62.2554 171.86C63.2821 172.287 63.7954 173.06 63.7954 174.18C63.7954 175.033 63.5154 175.72 62.9554 176.24C62.3954 176.747 61.6087 177 60.5954 177H55.5954V167H60.1954C61.1821 167 61.9487 167.247 62.4954 167.74C63.0554 168.233 63.3354 168.893 63.3354 169.72C63.3354 170.68 62.9754 171.393 62.2554 171.86ZM60.1154 168.56H57.2954V171.18H60.1154C61.1287 171.18 61.6354 170.733 61.6354 169.84C61.6354 168.987 61.1287 168.56 60.1154 168.56ZM57.2954 175.42H60.4954C61.0021 175.42 61.3887 175.3 61.6554 175.06C61.9354 174.82 62.0754 174.48 62.0754 174.04C62.0754 173.627 61.9354 173.307 61.6554 173.08C61.3887 172.84 61.0021 172.72 60.4954 172.72H57.2954V175.42ZM75.2735 172.8H66.8935C67.0668 173.68 67.4735 174.373 68.1135 174.88C68.7535 175.373 69.5535 175.62 70.5135 175.62C71.8335 175.62 72.7935 175.133 73.3935 174.16L74.8735 175C73.8868 176.507 72.4202 177.26 70.4735 177.26C68.9002 177.26 67.6068 176.767 66.5935 175.78C65.6068 174.767 65.1135 173.507 65.1135 172C65.1135 170.48 65.6002 169.227 66.5735 168.24C67.5468 167.24 68.8068 166.74 70.3535 166.74C71.8202 166.74 73.0135 167.26 73.9335 168.3C74.8668 169.313 75.3335 170.553 75.3335 172.02C75.3335 172.273 75.3135 172.533 75.2735 172.8ZM70.3535 168.38C69.4335 168.38 68.6602 168.64 68.0335 169.16C67.4202 169.68 67.0402 170.387 66.8935 171.28H73.5735C73.4268 170.36 73.0602 169.647 72.4735 169.14C71.8868 168.633 71.1802 168.38 70.3535 168.38ZM84.2537 171.16V167H85.9937V177H84.2537V172.82H79.0737V177H77.3337V167H79.0737V171.16H84.2537ZM95.5623 171.16V167H97.3023V177H95.5623V172.82H90.3823V177H88.6423V167H90.3823V171.16H95.5623ZM108.391 175.74C107.378 176.753 106.131 177.26 104.651 177.26C103.171 177.26 101.924 176.753 100.911 175.74C99.8975 174.727 99.3909 173.48 99.3909 172C99.3909 170.52 99.8975 169.273 100.911 168.26C101.924 167.247 103.171 166.74 104.651 166.74C106.131 166.74 107.378 167.247 108.391 168.26C109.418 169.287 109.931 170.533 109.931 172C109.931 173.467 109.418 174.713 108.391 175.74ZM104.651 175.56C105.651 175.56 106.491 175.22 107.171 174.54C107.851 173.86 108.191 173.013 108.191 172C108.191 170.987 107.851 170.14 107.171 169.46C106.491 168.78 105.651 168.44 104.651 168.44C103.664 168.44 102.831 168.78 102.151 169.46C101.471 170.14 101.131 170.987 101.131 172C101.131 173.013 101.471 173.86 102.151 174.54C102.831 175.22 103.664 175.56 104.651 175.56ZM120.122 167H121.982V177H120.282V169.74L117.102 174.86H116.882L113.702 169.74V177H111.982V167H113.842L116.982 172.06L120.122 167ZM128.738 174.84L131.618 167H133.478L129.398 177.62C128.972 178.753 128.372 179.613 127.598 180.2C126.825 180.8 125.945 181.067 124.958 181V179.38C126.172 179.473 127.072 178.807 127.658 177.38L127.818 177.02L123.478 167H125.318L128.738 174.84ZM3.74969 191H12.4097V201H10.6697V192.66H5.48969V201H3.74969V191ZM20.5783 190.74C21.9783 190.74 23.1716 191.253 24.1583 192.28C25.1449 193.307 25.6383 194.547 25.6383 196C25.6383 197.467 25.1449 198.713 24.1583 199.74C23.1849 200.753 21.9916 201.26 20.5783 201.26C18.9249 201.26 17.6649 200.6 16.7983 199.28V205H15.0583V191H16.7983V192.72C17.6649 191.4 18.9249 190.74 20.5783 190.74ZM20.3583 199.58C21.3583 199.58 22.1983 199.24 22.8783 198.56C23.5583 197.853 23.8983 197 23.8983 196C23.8983 194.987 23.5583 194.14 22.8783 193.46C22.1983 192.767 21.3583 192.42 20.3583 192.42C19.3449 192.42 18.4983 192.767 17.8183 193.46C17.1383 194.14 16.7983 194.987 16.7983 196C16.7983 197 17.1383 197.853 17.8183 198.56C18.4983 199.24 19.3449 199.58 20.3583 199.58ZM36.1545 199.74C35.1412 200.753 33.8945 201.26 32.4145 201.26C30.9345 201.26 29.6879 200.753 28.6745 199.74C27.6612 198.727 27.1545 197.48 27.1545 196C27.1545 194.52 27.6612 193.273 28.6745 192.26C29.6879 191.247 30.9345 190.74 32.4145 190.74C33.8945 190.74 35.1412 191.247 36.1545 192.26C37.1812 193.287 37.6945 194.533 37.6945 196C37.6945 197.467 37.1812 198.713 36.1545 199.74ZM32.4145 199.56C33.4145 199.56 34.2545 199.22 34.9345 198.54C35.6145 197.86 35.9545 197.013 35.9545 196C35.9545 194.987 35.6145 194.14 34.9345 193.46C34.2545 192.78 33.4145 192.44 32.4145 192.44C31.4279 192.44 30.5945 192.78 29.9145 193.46C29.2345 194.14 28.8945 194.987 28.8945 196C28.8945 197.013 29.2345 197.86 29.9145 198.54C30.5945 199.22 31.4279 199.56 32.4145 199.56ZM41.4658 198.02L47.0058 191H48.4058V201H46.6858V193.98L41.1458 201H39.7458V191H41.4658V198.02ZM56.4544 195.88C57.561 196.347 58.1144 197.14 58.1144 198.26C58.1144 199.127 57.7744 199.847 57.0944 200.42C56.4144 200.98 55.4744 201.26 54.2744 201.26C52.2744 201.26 50.9344 200.46 50.2544 198.86L51.7144 198C52.0877 199.093 52.9477 199.64 54.2944 199.64C54.9477 199.64 55.461 199.5 55.8344 199.22C56.2077 198.94 56.3944 198.567 56.3944 198.1C56.3944 197.7 56.241 197.373 55.9344 197.12C55.641 196.867 55.241 196.74 54.7344 196.74H53.2744V195.16H54.3544C54.861 195.16 55.2544 195.04 55.5344 194.8C55.8144 194.547 55.9544 194.207 55.9544 193.78C55.9544 193.34 55.7877 192.993 55.4544 192.74C55.121 192.473 54.6744 192.34 54.1144 192.34C52.9944 192.34 52.2344 192.813 51.8344 193.76L50.4144 192.94C51.121 191.473 52.3544 190.74 54.1144 190.74C55.181 190.74 56.0344 191.02 56.6744 191.58C57.3277 192.127 57.6544 192.813 57.6544 193.64C57.6544 194.653 57.2544 195.4 56.4544 195.88ZM66.6597 195.86C67.6864 196.287 68.1997 197.06 68.1997 198.18C68.1997 199.033 67.9197 199.72 67.3597 200.24C66.7997 200.747 66.013 201 64.9997 201H59.9997V191H64.5997C65.5864 191 66.353 191.247 66.8997 191.74C67.4597 192.233 67.7397 192.893 67.7397 193.72C67.7397 194.68 67.3797 195.393 66.6597 195.86ZM64.5197 192.56H61.6997V195.18H64.5197C65.533 195.18 66.0397 194.733 66.0397 193.84C66.0397 192.987 65.533 192.56 64.5197 192.56ZM61.6997 199.42H64.8997C65.4064 199.42 65.793 199.3 66.0597 199.06C66.3397 198.82 66.4797 198.48 66.4797 198.04C66.4797 197.627 66.3397 197.307 66.0597 197.08C65.793 196.84 65.4064 196.72 64.8997 196.72H61.6997V199.42ZM78.5178 199.74C77.5045 200.753 76.2578 201.26 74.7778 201.26C73.2978 201.26 72.0511 200.753 71.0378 199.74C70.0245 198.727 69.5178 197.48 69.5178 196C69.5178 194.52 70.0245 193.273 71.0378 192.26C72.0511 191.247 73.2978 190.74 74.7778 190.74C76.2578 190.74 77.5045 191.247 78.5178 192.26C79.5445 193.287 80.0578 194.533 80.0578 196C80.0578 197.467 79.5445 198.713 78.5178 199.74ZM74.7778 199.56C75.7778 199.56 76.6178 199.22 77.2978 198.54C77.9778 197.86 78.3178 197.013 78.3178 196C78.3178 194.987 77.9778 194.14 77.2978 193.46C76.6178 192.78 75.7778 192.44 74.7778 192.44C73.7911 192.44 72.9578 192.78 72.2778 193.46C71.5978 194.14 71.2578 194.987 71.2578 196C71.2578 197.013 71.5978 197.86 72.2778 198.54C72.9578 199.22 73.7911 199.56 74.7778 199.56ZM90.3184 191V199.34H91.6984V203.68H89.9784V201H82.4784V203.68H80.7584V199.34H81.9784C82.6184 198.46 82.9384 197.227 82.9384 195.64V191H90.3184ZM83.9584 199.34H88.5984V192.62H84.6584V195.64C84.6584 197.107 84.4251 198.34 83.9584 199.34ZM97.8833 201.26C96.3766 201.26 95.1233 200.76 94.1233 199.76C93.1233 198.747 92.6233 197.493 92.6233 196C92.6233 194.507 93.1233 193.26 94.1233 192.26C95.1233 191.247 96.3766 190.74 97.8833 190.74C98.8699 190.74 99.7566 190.98 100.543 191.46C101.33 191.927 101.917 192.56 102.303 193.36L100.843 194.2C100.59 193.667 100.197 193.24 99.6633 192.92C99.1433 192.6 98.5499 192.44 97.8833 192.44C96.8833 192.44 96.0433 192.78 95.3633 193.46C94.6966 194.153 94.3633 195 94.3633 196C94.3633 196.987 94.6966 197.827 95.3633 198.52C96.0433 199.2 96.8833 199.54 97.8833 199.54C98.5499 199.54 99.1499 199.387 99.6833 199.08C100.217 198.76 100.623 198.333 100.903 197.8L102.383 198.66C101.943 199.46 101.323 200.093 100.523 200.56C99.7233 201.027 98.8433 201.26 97.8833 201.26ZM102.825 191H111.385V192.68H107.985V201H106.245V192.68H102.825V191ZM119.57 195.86C120.597 196.287 121.11 197.06 121.11 198.18C121.11 199.033 120.83 199.72 120.27 200.24C119.71 200.747 118.923 201 117.91 201H112.91V191H117.51C118.497 191 119.263 191.247 119.81 191.74C120.37 192.233 120.65 192.893 120.65 193.72C120.65 194.68 120.29 195.393 119.57 195.86ZM117.43 192.56H114.61V195.18H117.43C118.443 195.18 118.95 194.733 118.95 193.84C118.95 192.987 118.443 192.56 117.43 192.56ZM114.61 199.42H117.81C118.317 199.42 118.703 199.3 118.97 199.06C119.25 198.82 119.39 198.48 119.39 198.04C119.39 197.627 119.25 197.307 118.97 197.08C118.703 196.84 118.317 196.72 117.81 196.72H114.61V199.42ZM126.697 198.84L129.577 191H131.437L127.357 201.62C126.931 202.753 126.331 203.613 125.557 204.2C124.784 204.8 123.904 205.067 122.917 205V203.38C124.131 203.473 125.031 202.807 125.617 201.38L125.777 201.02L121.437 191H123.277L126.697 198.84Z" fill="#252D35"/>
<path d="M104.992 8.53036C104.891 10.2368 104.59 11.9432 103.787 13.4488C103.185 14.6533 101.88 15.7575 100.776 16.5605C98.6678 18.0661 95.8573 17.8654 93.4482 17.1627C93.8498 18.1665 93.4483 19.371 92.6452 20.174C91.8422 20.977 90.7381 21.2782 89.634 21.2782C89.3328 21.2782 88.9313 21.2782 88.6302 21.1778V20.5755H87.2249C87.1245 20.4751 87.0242 20.4751 86.9238 20.3748C87.0242 20.4751 87.0242 20.4751 87.1245 20.5755H76.585C76.2839 19.9733 76.1835 19.371 76.1835 18.7687C76.0831 16.6608 77.5888 14.4526 79.5963 14.0511C80.8008 13.7499 81.8046 13.9507 83.0091 14.2518C81.102 12.6458 81.0016 9.6345 82.6076 7.62697C84.0129 5.92057 86.6227 5.31831 88.6302 6.32207C88.5298 6.6232 88.4294 7.02471 88.3291 7.32584L89.3328 6.72358C89.1321 6.52283 88.9313 6.42245 88.6302 6.32207C89.1321 4.81643 89.7343 3.51153 91.6415 2.00589C92.3441 1.30325 93.2475 1.00212 94.2513 0.801372C95.5562 0.500243 96.8611 0.29949 98.1659 0.500243C100.073 0.801372 101.779 1.70476 102.984 3.21041C104.189 4.71605 105.092 6.6232 104.992 8.53036Z" fill="#B8884B"/>
<path d="M87.2251 20.5756H88.53V21.0775C88.1285 20.9771 87.6266 20.8767 87.2251 20.5756Z" fill="#B8884B"/>
<path d="M89.5 5.99991L90 7.00009L88.1989 7.50369C88.2993 7.20256 88.3997 6.80106 88.5 6.49993C88.5 6.00009 89.2992 5.89954 89.5 5.99991Z" fill="#B8884B"/>
<path d="M57.3129 58.016H30.7131V67.4514H57.3129V58.016Z" fill="#B8884B"/>
<path d="M105.092 75.7826V47.6772H91.0393L89.2326 20.0737H76.0833L74.1761 47.6772H70.4622L70.3618 35.8328L58.1159 46.6734L58.0155 35.7324L45.87 46.6734L45.7696 35.8328L32.4195 47.6772H29.2075V75.7826H27.2V77.7901H107.2V75.7826H105.092ZM77.89 22.0812H87.3254L89.0318 47.6772H76.1836L77.89 22.0812ZM68.3543 40.2494L68.4547 47.6772H60.023L68.3543 40.2494ZM56.008 40.2494L56.1084 47.6772H47.6767L56.008 40.2494ZM43.7621 40.2494L43.8624 47.6772H35.4308L43.7621 40.2494ZM103.085 75.7826H90.8386V57.5141H88.8311V75.7826H80.6002V57.5141H78.5927V75.7826H70.3618V57.5141H68.3543V75.7826H31.215V49.6847H103.185V75.7826H103.085Z" fill="#01305E"/>
</svg>
