<svg width="80" height="80" viewBox="0 0 80 80" fill="none" xmlns="http://www.w3.org/2000/svg">
<path d="M74.8145 67.372C75.4251 66.4559 75.8323 65.2346 75.8323 64.0132V60.9597C75.8323 57.8045 73.3895 55.1582 70.2343 54.8529V46.5068H9.1656V54.9547C6.01038 55.26 3.56764 57.8045 3.56764 61.0615V64.115C3.56764 65.3363 3.97476 66.4559 4.58545 67.4737C1.63379 69.204 -0.300049 72.3592 -0.300049 76.0234V79.6875H20.6669V76.0234C20.6669 72.3592 18.733 69.204 15.7814 67.4737C16.3921 66.5577 16.7992 65.3363 16.7992 64.115V61.0615C16.7992 57.9063 14.3564 55.26 11.2012 54.9547V48.6442H38.6821V54.9547C35.5269 55.26 33.0842 57.8045 33.0842 61.0615V64.115C33.0842 65.3363 33.4913 66.4559 34.102 67.4737C31.1503 69.204 29.2165 72.3592 29.2165 76.0234V79.6875H50.1834V76.0234C50.1834 72.3592 48.2496 69.204 45.2979 67.4737C45.9086 66.5577 46.3157 65.3363 46.3157 64.115V61.0615C46.3157 57.9063 43.873 55.26 40.7178 54.9547V48.6442H68.1987V54.9547C65.0435 55.26 62.6007 57.8045 62.6007 61.0615V64.115C62.6007 65.3363 63.0078 66.4559 63.6185 67.4737C60.6669 69.204 58.733 72.3592 58.733 76.0234V79.6875H79.7V76.0234C79.7 72.3592 77.7661 69.1022 74.8145 67.372ZM18.6312 75.9216V77.5501H1.73557V75.9216C1.73557 72.8681 3.46585 70.2218 6.01038 68.8987C7.0282 69.7129 8.35135 70.12 9.67451 70.12H10.6923C12.1173 70.12 13.3386 69.7129 14.3564 68.8987C16.901 70.2218 18.6312 72.8681 18.6312 75.9216ZM14.7636 61.0615V64.115C14.7636 65.031 14.4582 65.8452 13.9493 66.5577C13.3386 67.372 12.4226 67.8809 11.4048 68.0844C11.2012 68.1862 10.9977 68.1862 10.6923 68.1862H9.67451C9.36916 68.1862 9.1656 68.1862 8.96204 68.0844C7.94423 67.8809 7.0282 67.372 6.41751 66.5577C5.9086 65.8452 5.60326 65.031 5.60326 64.115V61.0615C5.60326 58.8223 7.43532 56.9903 9.67451 56.9903H10.6923C12.9315 56.9903 14.7636 58.8223 14.7636 61.0615ZM48.1478 75.9216V77.5501H31.2521V75.9216C31.2521 72.8681 32.9824 70.2218 35.5269 68.8987C36.5447 69.7129 37.8679 70.12 39.191 70.12H40.2089C41.6338 70.12 42.8552 69.7129 43.873 68.8987C46.4175 70.2218 48.1478 72.8681 48.1478 75.9216ZM44.2801 61.0615V64.115C44.2801 65.031 43.9748 65.8452 43.4659 66.5577C42.8552 67.372 41.9391 67.8809 40.9213 68.0844C40.7178 68.1862 40.5142 68.1862 40.2089 68.1862H39.191C38.8857 68.1862 38.6821 68.1862 38.4786 68.0844C37.4608 67.8809 36.5447 67.372 35.934 66.5577C35.4251 65.8452 35.1198 65.031 35.1198 64.115V61.0615C35.1198 58.8223 36.9519 56.9903 39.191 56.9903H40.2089C42.448 56.9903 44.2801 58.8223 44.2801 61.0615ZM64.6363 61.0615C64.6363 58.8223 66.4684 56.9903 68.7076 56.9903H69.7254C71.9646 56.9903 73.7966 58.8223 73.7966 61.0615V64.115C73.7966 65.031 73.4913 65.8452 72.9824 66.5577C72.3717 67.372 71.4557 67.8809 70.4379 68.0844C70.2343 68.1862 70.0307 68.1862 69.7254 68.1862H68.7076C68.4022 68.1862 68.1987 68.1862 67.9951 68.0844C66.9773 67.8809 66.0613 67.372 65.4506 66.5577C64.9417 65.8452 64.6363 65.031 64.6363 64.115V61.0615ZM77.6643 77.5501H60.7687V75.9216C60.7687 72.8681 62.4989 70.2218 65.0435 68.8987C66.0613 69.7129 67.3844 70.12 68.7076 70.12H69.7254C71.1503 70.12 72.3717 69.7129 73.3895 68.8987C75.934 70.2218 77.6643 72.8681 77.6643 75.9216V77.5501Z" fill="#01305E"/>
<path d="M40.7178 40.807H38.6822V47.6263H40.7178V40.807Z" fill="#01305E"/>
<path d="M38.4786 21.5703C38.6822 21.5703 38.9875 21.6721 39.1911 21.6721H40.2089C40.5143 21.6721 40.7178 21.6721 40.9214 21.5703C41.9392 21.3667 42.8552 20.8578 43.4659 20.0436C43.9748 19.3311 44.2802 18.5168 44.2802 17.6008V14.5474C44.2802 12.3082 42.4481 10.4761 40.2089 10.4761H39.1911C36.9519 10.4761 35.1199 12.3082 35.1199 14.5474V17.6008C35.1199 18.5168 35.4252 19.3311 35.9341 20.0436C36.5448 20.756 37.4608 21.3667 38.4786 21.5703Z" fill="#B8884B"/>
<path d="M43.873 22.3847C42.8552 23.199 41.532 23.6061 40.2089 23.6061H39.1911C37.7661 23.6061 36.5447 23.199 35.5269 22.3847C32.9824 23.7079 31.2521 26.3542 31.2521 29.4076V31.0361H48.1478V29.4076C48.1478 26.3542 46.4175 23.7079 43.873 22.3847Z" fill="#B8884B"/>
<path d="M39.7 0.399902C28.5041 0.399902 19.3438 9.56021 19.3438 20.7561C19.3438 31.9521 28.5041 41.1124 39.7 41.1124C50.8959 41.1124 60.0562 31.9521 60.0562 20.7561C60.0562 9.45842 50.8959 0.399902 39.7 0.399902ZM50.1835 29.4075V33.0717H29.2165V29.4075C29.2165 25.7434 31.1504 22.5882 34.102 20.8579C33.4913 19.9419 33.0842 18.7205 33.0842 17.4991V14.4457C33.0842 11.2905 35.527 8.64418 38.6822 8.33883H40.7178C43.873 8.64418 46.3158 11.1887 46.3158 14.4457V17.4991C46.3158 18.7205 45.9086 19.8401 45.298 20.8579C48.2496 22.5882 50.1835 25.7434 50.1835 29.4075Z" fill="#B8884B"/>
</svg>
