<svg width="81" height="74" viewBox="0 0 81 74" fill="none" xmlns="http://www.w3.org/2000/svg">
<path d="M40.8016 9.96547C38.0536 9.96547 35.8144 12.2047 35.8144 14.9527C35.8144 17.7008 38.0536 19.94 40.8016 19.94C43.5497 19.94 45.7889 17.7008 45.7889 14.9527C45.7889 12.2047 43.5497 9.96547 40.8016 9.96547Z" fill="#B8884B"/>
<path d="M27.7738 2.94264V71.3396H54.2369V2.94264H27.7738ZM42.125 64.9274L40.7001 66.3523L34.8985 60.5508L36.3235 59.1258L40.5983 63.5024L44.8731 59.1258L46.298 60.5508L42.125 64.9274ZM46.3998 39.1767V41.2124H35.2039V39.1767H46.3998ZM35.2039 34.6984V32.6627H46.3998V34.6984H35.2039ZM39.9876 45.7925V47.8281H35.1021V45.7925H39.9876ZM40.8018 21.9757C36.9341 21.9757 33.7789 18.8205 33.7789 14.9528C33.7789 11.0851 36.9341 7.92992 40.8018 7.92992C44.6695 7.92992 47.8247 11.0851 47.8247 14.9528C47.8247 18.8205 44.6695 21.9757 40.8018 21.9757Z" fill="#B8884B"/>
<path d="M28.588 73.7824H0.699951V0.5H28.588V73.7824ZM2.73557 71.7468H26.5524V2.53562H2.73557V71.7468Z" fill="#01305E"/>
<path d="M80.6999 73.7824H52.8119V0.5H80.6999V73.7824ZM54.8475 71.7468H78.6643V2.53562H54.8475V71.7468Z" fill="#01305E"/>
<path d="M20.7509 60.551L16.3743 64.9276L14.9494 66.3525L9.14783 60.551L10.6746 59.1261L14.9494 63.5026L19.2242 59.1261L20.7509 60.551Z" fill="#01305E"/>
<path d="M72.4556 60.551L68.1808 64.9276L66.7559 66.3525L60.9543 60.551L62.3793 59.1261L66.7559 63.5026L71.0307 59.1261L72.4556 60.551Z" fill="#01305E"/>
<path d="M20.5473 32.6629H9.35135V34.6986H20.5473V32.6629Z" fill="#01305E"/>
<path d="M14.9494 21.9759C11.0817 21.9759 7.92651 18.8207 7.92651 14.953C7.92651 11.0853 11.0817 7.93007 14.9494 7.93007C18.8171 7.93007 21.9723 11.0853 21.9723 14.953C21.9723 18.8207 18.8171 21.9759 14.9494 21.9759ZM14.9494 9.96569C12.2013 9.96569 9.96214 12.2049 9.96214 14.953C9.96214 17.7011 12.2013 19.9402 14.9494 19.9402C17.6975 19.9402 19.9367 17.7011 19.9367 14.953C19.9367 12.2049 17.6975 9.96569 14.9494 9.96569Z" fill="#01305E"/>
<path d="M66.8578 21.9759C62.9901 21.9759 59.8349 18.8207 59.8349 14.953C59.8349 11.0853 62.9901 7.93007 66.8578 7.93007C70.7255 7.93007 73.8807 11.0853 73.8807 14.953C73.8807 18.8207 70.7255 21.9759 66.8578 21.9759ZM66.8578 9.96569C64.1097 9.96569 61.8705 12.2049 61.8705 14.953C61.8705 17.7011 64.1097 19.9402 66.8578 19.9402C69.6059 19.9402 71.8451 17.7011 71.8451 14.953C71.8451 12.2049 69.6059 9.96569 66.8578 9.96569Z" fill="#01305E"/>
<path d="M20.5473 39.1768H9.35135V41.2125H20.5473V39.1768Z" fill="#01305E"/>
<path d="M14.2368 45.7926H9.35135V47.8282H14.2368V45.7926Z" fill="#01305E"/>
<path d="M72.3538 32.6629H61.1579V34.6986H72.3538V32.6629Z" fill="#01305E"/>
<path d="M72.3538 39.1768H61.1579V41.2125H72.3538V39.1768Z" fill="#01305E"/>
<path d="M66.0434 45.7926H61.1579V47.8282H66.0434V45.7926Z" fill="#01305E"/>
</svg>
