<svg width="81" height="68" viewBox="0 0 81 68" fill="none" xmlns="http://www.w3.org/2000/svg">
<path d="M63.4061 2.43023L60.9633 12.5066L58.9277 11.9977L60.5562 5.58545L43.8641 16.476L25.0346 4.26229L6.81576 16.3743L5.59439 14.644L25.0346 1.81954L43.8641 14.0333L59.4366 3.85517L52.9226 2.73557L53.228 0.699951L63.4061 2.43023Z" fill="#01305E"/>
<path d="M67.9862 20.0384V41.616L70.0218 55.56L65.4417 57.7992L61.2687 55.8653H59.7419V20.0384H67.9862ZM29.2076 20.0384V55.7636H20.9633V20.0384H29.2076ZM48.1389 32.4557V55.6618H39.8946V32.4557H48.1389ZM10.3781 32.9646V55.7636H2.23557V32.9646H10.3781ZM70.0218 18.0027H57.7063V55.7636H50.2763V30.42H37.9608V55.6618H31.2432V18.0027H18.9277V55.7636H12.4137V30.929H0.199951V57.7992H70.0218V18.0027Z" fill="#01305E"/>
<path d="M65.34 48.8425C67.4774 48.8425 69.3094 50.5728 69.3094 52.812C69.3094 54.9494 67.5792 56.7814 65.34 56.7814C63.2026 56.7814 61.3705 55.0511 61.3705 52.812C61.3705 50.6746 63.1008 48.8425 65.34 48.8425ZM65.34 40.7C58.6224 40.7 53.228 46.0944 53.228 52.812C53.228 59.5295 58.6224 64.9239 65.34 64.9239C72.0575 64.9239 77.4519 59.5295 77.4519 52.812C77.4519 46.0944 71.9558 40.7 65.34 40.7Z" fill="#B8884B"/>
<path d="M68.9021 37.6466H61.6757L60.6579 44.6695H69.92L68.9021 37.6466Z" fill="#B8884B"/>
<path d="M68.9023 37.6466H61.6758L61.1669 41.4125C59.8438 41.9214 58.6224 42.6338 57.5028 43.5499L53.9405 42.1249L50.3781 48.3336L53.4315 50.6745C53.3298 51.2852 53.228 51.9977 53.228 52.7102C53.228 53.5244 53.3298 54.2369 53.4315 54.9494L50.4799 57.3921L54.144 63.6008L57.7064 62.1758C58.7242 62.9901 59.9455 63.7025 61.1669 64.2114L61.6758 67.9774H68.9023L69.4112 64.2114C70.7343 63.7025 71.9557 62.9901 73.0753 62.074L76.6377 63.499L80.2 57.2903L77.1466 54.9494C77.2483 54.3387 77.3501 53.6262 77.3501 52.9137C77.3501 52.0995 77.2483 51.387 77.1466 50.6745L80.0982 48.2318L76.4341 42.0231L72.8717 43.4481C71.8539 42.6338 70.6326 41.9214 69.4112 41.4125L68.9023 37.6466ZM65.3399 56.7814C63.2025 56.7814 61.3705 54.9494 61.3705 52.812C61.3705 50.6746 63.2025 48.8425 65.3399 48.8425C67.4773 48.8425 69.3094 50.6746 69.3094 52.812C69.3094 54.9494 67.4773 56.7814 65.3399 56.7814Z" fill="#B8884B"/>
</svg>
