<svg width="81" height="81" viewBox="0 0 81 81" fill="none" xmlns="http://www.w3.org/2000/svg">
<path d="M40.5 0.5C18.4241 0.5 0.5 18.4241 0.5 40.5C0.5 62.576 18.4241 80.5 40.5 80.5C62.576 80.5 80.5 62.576 80.5 40.5C80.5 18.4241 62.576 0.5 40.5 0.5ZM40.5 78.4747C19.538 78.4747 2.52532 61.462 2.52532 40.5C2.52532 19.538 19.538 2.52532 40.5 2.52532C61.462 2.52532 78.4747 19.538 78.4747 40.5C78.4747 61.462 61.462 78.4747 40.5 78.4747Z" fill="#01305E"/>
<path d="M54.7784 26.2214L34.1202 34.1202L26.2214 54.7784L46.8797 46.8796L54.7784 26.2214Z" fill="#B8884B"/>
<path d="M40.5 7.28476C22.1709 7.28476 7.28479 22.1708 7.28479 40.4999C7.28479 58.8291 22.1709 73.7151 40.5 73.7151C58.8291 73.7151 73.7152 58.8291 73.7152 40.4999C73.7152 22.1708 58.8291 7.28476 40.5 7.28476ZM63.1835 61.7658L59.8418 58.424L58.424 59.8417L61.7658 63.1835C56.3987 68.2468 49.3101 71.386 41.4114 71.5886V64.0949H39.3861V71.4873C31.5886 71.1835 24.5 68.0443 19.2342 63.0822L22.5759 59.7405L21.1582 58.3227L17.8164 61.7658C12.7531 56.3987 9.6139 49.3101 9.41137 41.5126H16.8038V39.4873H9.41137C9.6139 31.6898 12.7531 24.6012 17.8164 19.2341L21.1582 22.5759L22.5759 21.1582L19.2342 17.8164C24.6012 12.7531 31.6899 9.61387 39.4873 9.41134V16.8037H41.5126V9.41134C49.4114 9.61387 56.5 12.7531 61.8671 17.8164L58.5253 21.1582L59.943 22.5759L63.2848 19.2341C68.3481 24.6012 71.4873 31.6898 71.6899 39.4873H64.1962V41.5126H71.6899C71.3861 49.3101 68.2468 56.4999 63.1835 61.7658Z" fill="#01305E"/>
</svg>
