<svg width="50" height="51" viewBox="0 0 50 51" fill="none" xmlns="http://www.w3.org/2000/svg">
<rect x="1" y="1.80176" width="48" height="48" fill="white" stroke="#252D35" stroke-width="2"/>
<path d="M33.4853 29.3164C32.1783 28.0095 30.6226 27.0419 28.9253 26.4562C30.7432 25.2041 31.9375 23.1087 31.9375 20.7393C31.9375 16.9139 28.8253 13.8018 25 13.8018C21.1747 13.8018 18.0625 16.9139 18.0625 20.7393C18.0625 23.1087 19.2568 25.2041 21.0748 26.4562C19.3774 27.0419 17.8218 28.0095 16.5147 29.3164C14.2482 31.583 13 34.5964 13 37.8018H14.875C14.875 32.2188 19.417 27.6768 25 27.6768C30.583 27.6768 35.125 32.2188 35.125 37.8018H37C37 34.5964 35.7518 31.583 33.4853 29.3164ZM25 25.8018C22.2085 25.8018 19.9375 23.5308 19.9375 20.7393C19.9375 17.9478 22.2085 15.6768 25 15.6768C27.7915 15.6768 30.0625 17.9478 30.0625 20.7393C30.0625 23.5308 27.7915 25.8018 25 25.8018Z" fill="#252D35"/>
</svg>
